<?xml version="1.0" encoding="UTF-8"?><svg xmlns="http://www.w3.org/2000/svg" width="491" height="246" viewBox="0 0 491 246" shape-rendering="crispEdges"><title>Fields of Resolve effects atlas</title><defs><symbol id="effect-muzzle-flash" viewBox="0 0 48 48"><path d="M24 5l4 14 15 5-15 5-4 14-4-14-15-5 15-5z" fill="#ffd35a"/><circle cx="24" cy="24" r="5" fill="#fff4cf"/></symbol><symbol id="effect-tracer" viewBox="0 0 48 48"><rect x="21" y="4" width="6" height="36" rx="2" fill="#ffd35a"/><rect x="23" y="6" width="2" height="28" fill="#fff4cf"/><path d="M19 40h10l-5 6z" fill="#ff8a35"/></symbol><symbol id="effect-shell" viewBox="0 0 48 48"><path d="M20 11l4-7 4 7v23h-8z" fill="#9b7650"/><path d="M21 31h6l-3 13z" fill="#ff8a35"/><path d="M22 33h4l-2 8z" fill="#ffd35a"/></symbol><symbol id="effect-missile" viewBox="0 0 48 48"><path d="M24 3l6 10v20l-6 5-6-5V13z" fill="#aab2ad" stroke="#111512" stroke-width="2"/><path d="M18 25l-7 8 7-3m12-5 7 8-7-3" fill="#9b7650"/><path d="M20 37h8l-4 9z" fill="#ff8a35"/></symbol><symbol id="effect-drone" viewBox="0 0 48 48"><rect x="20" y="20" width="8" height="8" fill="#59635e"/><path d="M8 12l12 10m20-10L28 22M8 36l12-10m20 10L28 26" stroke="#aab2ad" stroke-width="3"/><g fill="none" stroke="#70e0d0" stroke-width="2"><circle cx="8" cy="12" r="6"/><circle cx="40" cy="12" r="6"/><circle cx="8" cy="36" r="6"/><circle cx="40" cy="36" r="6"/></g></symbol><symbol id="effect-impact" viewBox="0 0 48 48"><circle cx="24" cy="24" r="12" fill="#ff8a35"/><circle cx="24" cy="24" r="6" fill="#fff4cf"/><path d="M24 4v9m20 11h-9M24 44v-9M4 24h9" stroke="#ffd35a" stroke-width="3"/></symbol><symbol id="effect-explosion" viewBox="0 0 48 48"><circle cx="24" cy="24" r="20" fill="#e8533f"/><circle cx="24" cy="24" r="13" fill="#ff8a35"/><circle cx="24" cy="24" r="6" fill="#ffd35a"/><path d="M24 2l4 12 10-9-4 14 12-3-11 8 10 10-13-4 2 15-10-12-7 13 1-15-14 6 12-13L2 21l15-4-7-11 11 9z" fill="#ff8a35"/></symbol><symbol id="effect-smoke" viewBox="0 0 48 48"><g fill="#aab2ad"><circle cx="17" cy="30" r="11"/><circle cx="30" cy="29" r="13"/><circle cx="24" cy="17" r="11"/></g><circle cx="36" cy="20" r="8" fill="#59635e"/><rect x="18" y="36" width="13" height="7" fill="#59635e"/></symbol><symbol id="effect-fire" viewBox="0 0 48 48"><path d="M24 3c4 11 12 16 10 29-2 10-8 13-12 13-10 0-14-8-11-17 2-7 9-13 12-25z" fill="#e8533f"/><path d="M24 14c5 7 7 13 5 21-1 5-5 7-8 5-5-3-3-11 3-26z" fill="#ff8a35"/><path d="M24 25c3 5 3 10 0 13-3-2-3-7 0-13z" fill="#ffd35a"/></symbol><symbol id="effect-dust" viewBox="0 0 48 48"><circle cx="17" cy="30" r="12" fill="#9b7650" opacity=".7"/><circle cx="31" cy="28" r="10" fill="#9b7650" opacity=".5"/><rect x="5" y="35" width="7" height="5" fill="#9b7650"/><rect x="35" y="32" width="5" height="4" fill="#dfe9d8"/></symbol><symbol id="effect-repair" viewBox="0 0 48 48"><path d="M12 36l24-24m-7-3 10 10M9 29l10 10" stroke="#dfe9d8" stroke-width="5"/><circle cx="24" cy="24" r="15" fill="none" stroke="#70e0d0" stroke-width="2" stroke-dasharray="5 4"/><path d="M6 18h10m18 17h9M35 6v11" stroke="#ffd35a" stroke-width="3"/></symbol><symbol id="effect-heal" viewBox="0 0 48 48"><circle cx="24" cy="24" r="18" fill="none" stroke="#73d58b" stroke-width="3"/><path d="M20 10h8v10h10v8H28v10h-8V28H10v-8h10z" fill="#fff4cf"/><circle cx="24" cy="24" r="5" fill="#73d58b"/></symbol><symbol id="effect-capture" viewBox="0 0 48 48"><circle cx="24" cy="24" r="20" fill="none" stroke="#75c9ff" stroke-width="3" stroke-dasharray="6 4"/><path d="M18 40V8h15l-5 7 5 7H18" fill="#ffd35a" stroke="#111512" stroke-width="2"/><circle cx="24" cy="25" r="5" fill="#70e0d0"/></symbol><symbol id="effect-build" viewBox="0 0 48 48"><rect x="7" y="17" width="34" height="22" fill="#9b7650" opacity=".75"/><path d="M7 39L41 8M7 8l34 31M16 5v38M32 5v38" stroke="#dfe9d8" stroke-width="2"/><rect x="11" y="12" width="26" height="5" fill="#ffd35a"/></symbol><symbol id="effect-weather" viewBox="0 0 48 48"><path d="M8 5L3 16m16-11-5 11M30 5l-5 11M42 5l-5 11M10 25L5 37m18-12-5 12m17-12-5 12m15-12-5 12" stroke="#75c9ff" stroke-width="3"/><path d="M26 8l-8 18h8l-6 17 16-23h-8l7-12z" fill="#ffd35a"/></symbol></defs><g id="build-00" transform="translate(1 1)"><use href="#effect-build" width="48" height="48" opacity="0.72" transform="rotate(0 24 24)"/></g><g id="build-01" transform="translate(50 1)"><use href="#effect-build" width="48" height="48" opacity="0.80" transform="rotate(7 24 24)"/></g><g id="build-02" transform="translate(99 1)"><use href="#effect-build" width="48" height="48" opacity="0.88" transform="rotate(14 24 24)"/></g><g id="build-03" transform="translate(148 1)"><use href="#effect-build" width="48" height="48" opacity="0.96" transform="rotate(21 24 24)"/></g><g id="capture-00" transform="translate(197 1)"><use href="#effect-capture" width="48" height="48" opacity="0.72" transform="rotate(0 24 24)"/></g><g id="capture-01" transform="translate(246 1)"><use href="#effect-capture" width="48" height="48" opacity="0.80" transform="rotate(7 24 24)"/></g><g id="capture-02" transform="translate(295 1)"><use href="#effect-capture" width="48" height="48" opacity="0.88" transform="rotate(14 24 24)"/></g><g id="capture-03" transform="translate(344 1)"><use href="#effect-capture" width="48" height="48" opacity="0.96" transform="rotate(21 24 24)"/></g><g id="drone-00" transform="translate(393 1)"><use href="#effect-drone" width="48" height="48" opacity="0.72" transform="rotate(0 24 24)"/></g><g id="drone-01" transform="translate(442 1)"><use href="#effect-drone" width="48" height="48" opacity="0.80" transform="rotate(7 24 24)"/></g><g id="dust-00" transform="translate(1 50)"><use href="#effect-dust" width="48" height="48" opacity="0.72" transform="rotate(0 24 24)"/></g><g id="dust-01" transform="translate(50 50)"><use href="#effect-dust" width="48" height="48" opacity="0.80" transform="rotate(7 24 24)"/></g><g id="dust-02" transform="translate(99 50)"><use href="#effect-dust" width="48" height="48" opacity="0.88" transform="rotate(14 24 24)"/></g><g id="explosion-00" transform="translate(148 50)"><use href="#effect-explosion" width="48" height="48" opacity="0.72" transform="rotate(0 24 24)"/></g><g id="explosion-01" transform="translate(197 50)"><use href="#effect-explosion" width="48" height="48" opacity="0.80" transform="rotate(7 24 24)"/></g><g id="explosion-02" transform="translate(246 50)"><use href="#effect-explosion" width="48" height="48" opacity="0.88" transform="rotate(14 24 24)"/></g><g id="explosion-03" transform="translate(295 50)"><use href="#effect-explosion" width="48" height="48" opacity="0.96" transform="rotate(21 24 24)"/></g><g id="fire-00" transform="translate(344 50)"><use href="#effect-fire" width="48" height="48" opacity="0.72" transform="rotate(0 24 24)"/></g><g id="fire-01" transform="translate(393 50)"><use href="#effect-fire" width="48" height="48" opacity="0.80" transform="rotate(7 24 24)"/></g><g id="fire-02" transform="translate(442 50)"><use href="#effect-fire" width="48" height="48" opacity="0.88" transform="rotate(14 24 24)"/></g><g id="fire-03" transform="translate(1 99)"><use href="#effect-fire" width="48" height="48" opacity="0.96" transform="rotate(21 24 24)"/></g><g id="heal-00" transform="translate(50 99)"><use href="#effect-heal" width="48" height="48" opacity="0.72" transform="rotate(0 24 24)"/></g><g id="heal-01" transform="translate(99 99)"><use href="#effect-heal" width="48" height="48" opacity="0.80" transform="rotate(7 24 24)"/></g><g id="heal-02" transform="translate(148 99)"><use href="#effect-heal" width="48" height="48" opacity="0.88" transform="rotate(14 24 24)"/></g><g id="impact-00" transform="translate(197 99)"><use href="#effect-impact" width="48" height="48" opacity="0.72" transform="rotate(0 24 24)"/></g><g id="impact-01" transform="translate(246 99)"><use href="#effect-impact" width="48" height="48" opacity="0.80" transform="rotate(7 24 24)"/></g><g id="impact-02" transform="translate(295 99)"><use href="#effect-impact" width="48" height="48" opacity="0.88" transform="rotate(14 24 24)"/></g><g id="missile-00" transform="translate(344 99)"><use href="#effect-missile" width="48" height="48" opacity="0.72" transform="rotate(0 24 24)"/></g><g id="missile-01" transform="translate(393 99)"><use href="#effect-missile" width="48" height="48" opacity="0.80" transform="rotate(7 24 24)"/></g><g id="missile-02" transform="translate(442 99)"><use href="#effect-missile" width="48" height="48" opacity="0.88" transform="rotate(14 24 24)"/></g><g id="muzzle-flash-00" transform="translate(1 148)"><use href="#effect-muzzle-flash" width="48" height="48" opacity="0.72" transform="rotate(0 24 24)"/></g><g id="muzzle-flash-01" transform="translate(50 148)"><use href="#effect-muzzle-flash" width="48" height="48" opacity="0.80" transform="rotate(7 24 24)"/></g><g id="muzzle-flash-02" transform="translate(99 148)"><use href="#effect-muzzle-flash" width="48" height="48" opacity="0.88" transform="rotate(14 24 24)"/></g><g id="repair-00" transform="translate(148 148)"><use href="#effect-repair" width="48" height="48" opacity="0.72" transform="rotate(0 24 24)"/></g><g id="repair-01" transform="translate(197 148)"><use href="#effect-repair" width="48" height="48" opacity="0.80" transform="rotate(7 24 24)"/></g><g id="repair-02" transform="translate(246 148)"><use href="#effect-repair" width="48" height="48" opacity="0.88" transform="rotate(14 24 24)"/></g><g id="shell-00" transform="translate(295 148)"><use href="#effect-shell" width="48" height="48" opacity="0.72" transform="rotate(0 24 24)"/></g><g id="shell-01" transform="translate(344 148)"><use href="#effect-shell" width="48" height="48" opacity="0.80" transform="rotate(7 24 24)"/></g><g id="smoke-00" transform="translate(393 148)"><use href="#effect-smoke" width="48" height="48" opacity="0.72" transform="rotate(0 24 24)"/></g><g id="smoke-01" transform="translate(442 148)"><use href="#effect-smoke" width="48" height="48" opacity="0.80" transform="rotate(7 24 24)"/></g><g id="smoke-02" transform="translate(1 197)"><use href="#effect-smoke" width="48" height="48" opacity="0.88" transform="rotate(14 24 24)"/></g><g id="smoke-03" transform="translate(50 197)"><use href="#effect-smoke" width="48" height="48" opacity="0.96" transform="rotate(21 24 24)"/></g><g id="tracer-00" transform="translate(99 197)"><use href="#effect-tracer" width="48" height="48" opacity="0.72" transform="rotate(0 24 24)"/></g><g id="tracer-01" transform="translate(148 197)"><use href="#effect-tracer" width="48" height="48" opacity="0.80" transform="rotate(7 24 24)"/></g><g id="weather-00" transform="translate(197 197)"><use href="#effect-weather" width="48" height="48" opacity="0.72" transform="rotate(0 24 24)"/></g><g id="weather-01" transform="translate(246 197)"><use href="#effect-weather" width="48" height="48" opacity="0.80" transform="rotate(7 24 24)"/></g><g id="weather-02" transform="translate(295 197)"><use href="#effect-weather" width="48" height="48" opacity="0.88" transform="rotate(14 24 24)"/></g><g id="weather-03" transform="translate(344 197)"><use href="#effect-weather" width="48" height="48" opacity="0.96" transform="rotate(21 24 24)"/></g></svg>
